<?xml version="1.0" encoding="utf-8"?>
<!-- Generator: Adobe Illustrator 25.0.0, SVG Export Plug-In . SVG Version: 6.00 Build 0)  -->
<svg version="1.1" id="Layer_1" xmlns="http://www.w3.org/2000/svg" xmlns:xlink="http://www.w3.org/1999/xlink" x="0px" y="0px"
	 viewBox="0 0 241.9 241.9" style="enable-background:new 0 0 241.9 241.9;" xml:space="preserve">
<style type="text/css">
	.st0{fill:#FFFFFF;}
	.st1{fill:#17C1E5;}
</style>
<g id="Layer_2_1_">
	<g id="Layer_1-2">
		<path class="st0" d="M30.6,0h180.8c16.9,0,30.6,13.7,30.6,30.6v180.8c0,16.9-13.7,30.6-30.6,30.6H30.6C13.7,241.9,0,228.2,0,211.4
			V30.6C0,13.7,13.7,0,30.6,0z"/>
		<path class="st1" d="M159.2,80.9c0,0.5-0.4,0.9-0.9,0.9c-0.5,0-0.9-0.4-0.9-0.9c0-0.5,0.4-0.9,0.9-0.9c0,0,0,0,0,0
			C158.8,80,159.2,80.4,159.2,80.9z M159.8,88.9c0,1.2-0.9,2.2-2.1,2.2c-1.2,0-2.2-0.9-2.2-2.1c0-1.2,0.9-2.2,2.1-2.2c0,0,0,0,0,0
			C158.8,86.7,159.8,87.7,159.8,88.9C159.8,88.9,159.8,88.9,159.8,88.9L159.8,88.9z M164.1,95.6c0,0.5-0.4,0.9-0.9,0.9
			c-0.5,0-0.9-0.4-0.9-0.9c0-0.3,0.1-0.6,0.3-0.7l0,0c0.2-0.1,0.4-0.2,0.6-0.2C163.7,94.7,164.1,95.1,164.1,95.6
			C164.1,95.6,164.1,95.6,164.1,95.6L164.1,95.6z M150.5,93.2c0,1.2-1,2.2-2.2,2.2c-1.2,0-2.2-1-2.2-2.2c0-1.2,1-2.2,2.2-2.2
			c0,0,0,0,0,0C149.6,91,150.5,92,150.5,93.2C150.5,93.2,150.5,93.2,150.5,93.2L150.5,93.2z M141.2,86.4c0-0.5,0.4-0.9,0.9-0.9
			c0.5,0,0.9,0.4,0.9,0.9c0,0.2-0.1,0.5-0.3,0.7l0,0l0,0c-0.2,0.1-0.4,0.2-0.6,0.2C141.7,87.4,141.3,87,141.2,86.4
			C141.3,86.4,141.3,86.4,141.2,86.4L141.2,86.4z M156.7,80.9c0,0.7,0.5,1.3,1.1,1.5l-0.3,3.7c-1.5,0-2.7,1.3-2.7,2.7
			c0,0.3,0.1,0.6,0.1,0.9l-4.3,2c-0.8-1.3-2.5-1.7-3.8-0.9c-0.1,0-0.1,0.1-0.2,0.1l-3.3-3.6c0.2-0.3,0.3-0.6,0.3-0.9
			c0-0.9-0.7-1.6-1.5-1.6c-0.9,0-1.6,0.7-1.6,1.5c0,0.9,0.7,1.6,1.5,1.6c0,0,0,0,0,0c0.3,0,0.5-0.1,0.8-0.2l3.3,3.6
			c-0.4,0.5-0.7,1.1-0.7,1.8c0,1.5,1.2,2.8,2.8,2.8c1.5,0,2.8-1.2,2.8-2.8c0-0.3-0.1-0.6-0.1-0.9l4.3-2c0.5,0.8,1.4,1.3,2.4,1.3
			c0.5,0,1.1-0.2,1.5-0.4l2.9,3.4c-0.2,0.3-0.3,0.6-0.3,1c0,0.9,0.7,1.5,1.5,1.5c0.9,0,1.5-0.7,1.5-1.5s-0.7-1.5-1.5-1.5
			c0,0,0,0,0,0c-0.3,0-0.5,0.1-0.7,0.2l-2.9-3.5c0.5-0.5,0.8-1.2,0.8-1.9c0-1.3-1-2.5-2.3-2.7l0.3-3.7c0.8-0.1,1.4-0.9,1.3-1.7
			c-0.1-0.8-0.9-1.4-1.7-1.3C157.3,79.6,156.7,80.2,156.7,80.9"/>
		<path class="st1" d="M184.4,40l-21.4,37.9c6.3,5.7,6.8,15.5,1.1,21.8c-2.9,3.2-7.1,5.1-11.4,5.1c-1.5,0-3-0.2-4.4-0.6L121,152.5
			L74.6,70.4h17.1V100H92v0.1h49.7c-6-6.1-5.9-15.8,0.2-21.8c0.7-0.7,1.5-1.4,2.4-1.9h-24.6V40H24l16.7,29.5v0.9h0.5L121,211.9
			L217.9,40H184.4z"/>
	</g>
</g>
</svg>
