<svg xmlns="http://www.w3.org/2000/svg" viewBox="0 0 241.92 241.92"><defs><style>.cls-1{fill:#fff;}.cls-2{fill:#17c1e5;}</style></defs><g id="Layer_2" data-name="Layer 2"><g id="Layer_1-2" data-name="Layer 1"><rect class="cls-1" width="241.92" height="241.92" rx="30.57"/><path class="cls-2" d="M159.18,80.94a.93.93,0,1,1-.92-.91A.92.92,0,0,1,159.18,80.94Zm.62,7.94a2.17,2.17,0,1,1-2.16-2.14A2.15,2.15,0,0,1,159.8,88.88Zm4.33,6.72a.93.93,0,1,1-1.52-.7h0a.91.91,0,0,1,.58-.2A.92.92,0,0,1,164.13,95.6Zm-13.6-2.44A2.17,2.17,0,1,1,148.36,91,2.16,2.16,0,0,1,150.53,93.16Zm-9.28-6.72a.93.93,0,0,1,1.86,0,.93.93,0,0,1-.28.66h0l0,0a1,1,0,0,1-.61.23A.93.93,0,0,1,141.25,86.44Zm15.46-5.5a1.52,1.52,0,0,0,1.13,1.46l-.3,3.74a2.77,2.77,0,0,0-2.68,2.74,2.84,2.84,0,0,0,.15.87l-4.28,2a2.78,2.78,0,0,0-4-.79l-3.31-3.6a1.59,1.59,0,0,0,.3-.9A1.55,1.55,0,1,0,142.18,88a1.48,1.48,0,0,0,.78-.22l3.31,3.61a2.7,2.7,0,0,0-.7,1.8,2.78,2.78,0,0,0,5.56,0,2.84,2.84,0,0,0-.15-.87l4.29-2a2.75,2.75,0,0,0,2.36,1.32,2.71,2.71,0,0,0,1.51-.45L162,94.63a1.61,1.61,0,0,0-.34,1,1.54,1.54,0,1,0,1.54-1.53,1.49,1.49,0,0,0-.72.19l-2.86-3.46a2.71,2.71,0,0,0,.8-1.91,2.75,2.75,0,0,0-2.26-2.69l.29-3.74a1.53,1.53,0,1,0-1.74-1.52"/><path class="cls-2" d="M184.41,40,163.06,77.87a15.41,15.41,0,0,1-10.37,26.83,15.6,15.6,0,0,1-4.4-.64L121,152.54,74.63,70.37h17.1V100H92v.06h49.66a15.4,15.4,0,0,1,2.58-23.72H119.63V40H24L40.65,69.47v.9h.51L121,211.91,217.88,40Z"/></g></g></svg>