<svg xmlns="http://www.w3.org/2000/svg" viewBox="0 0 193.84 171.9"><defs><style>.cls-1{fill:#17c1e5;}</style></defs><g id="Layer_2" data-name="Layer 2"><g id="Layer_1-2" data-name="Layer 1"><path class="cls-1" d="M135.14,40.93a.93.93,0,1,1-.92-.91A.92.92,0,0,1,135.14,40.93Zm.62,7.94a2.16,2.16,0,1,1-2.16-2.13A2.15,2.15,0,0,1,135.76,48.87Zm4.33,6.72a.93.93,0,1,1-1.52-.7h0a.91.91,0,0,1,.58-.2A.92.92,0,0,1,140.09,55.59Zm-13.6-2.44A2.17,2.17,0,1,1,124.32,51,2.16,2.16,0,0,1,126.49,53.15Zm-9.27-6.72a.93.93,0,1,1,1.57.66h0s0,0,0,0a.94.94,0,0,1-.61.23A.92.92,0,0,1,117.22,46.43Zm15.45-5.5a1.52,1.52,0,0,0,1.13,1.46l-.29,3.74A2.72,2.72,0,0,0,131,49.74l-4.28,2a2.79,2.79,0,0,0-4-.79l-3.32-3.6a1.51,1.51,0,0,0,.31-.9,1.55,1.55,0,1,0-.77,1.31l3.32,3.6a2.66,2.66,0,0,0-.71,1.81,2.79,2.79,0,0,0,5.57,0,2.49,2.49,0,0,0-.16-.87l4.29-2a2.76,2.76,0,0,0,2.36,1.32,2.71,2.71,0,0,0,1.51-.45L138,54.62a1.61,1.61,0,0,0-.34,1,1.56,1.56,0,1,0,.83-1.34l-2.87-3.45a2.72,2.72,0,0,0-1.46-4.61l.29-3.74a1.53,1.53,0,1,0-1.74-1.52"/><path class="cls-1" d="M160.37,0,139,37.86a15.42,15.42,0,0,1-14.76,26.19L96.92,112.53,50.6,30.37H67.69V60H68v.07h49.66a15.43,15.43,0,0,1,2.58-23.73H95.6V0H0L16.61,29.46v.91h.51L96.92,171.9,193.84,0Z"/></g></g></svg>